# xmcd CD database file
#
# Track frame offsets:
#	150
#	12647
#	28471
#	44847
#	59019
#	72772
#	82142
#	96218
#	106758
#	118867
#	123216
#	134354
#	143924
#
# Disc length: 2047 seconds
#
# Revision: 2
# Processed by: cddbd v1.4b41PL1 Copyright (c) Steve Scherf et al.
# Submitted via: Feurio! 1.52 - http://www.feurio.com
#
DISCID=c807fd0d
DTITLE=Various Artist - Elvis The Best Of
DYEAR=1900
DGENRE=
TTITLE0=Elvis Pressley -  Love Me Tender
TTITLE1=Elvis Pressley - Always On My Mind
TTITLE2=Elvis Pressley - Amazing Grace
TTITLE3=Elvis Pressley - Are You Lonesome Tonight
TTITLE4=Elvis - Can't Help Falling In Love
TTITLE5=Elvis Presley - Don't Be Cruel
TTITLE6=Elvis Pressley - For The Good Times
TTITLE7=Elvis Presely - Hound Dog
TTITLE8=Elvis Presley - In the ghetto
TTITLE9=Elvis Presley - The Impossible Dream
TTITLE10=Elvis Presley - Crying In The Chapel
TTITLE11=Elvis Pressley -  Return To Sender
TTITLE12=Elvis Presley - Blue Christmas
EXTD=
EXTT0=
EXTT1=
EXTT2=
EXTT3=
EXTT4=
EXTT5=
EXTT6=
EXTT7=
EXTT8=
EXTT9=
EXTT10=
EXTT11=
EXTT12=
PLAYORDER=
